fd_2_states
version=1
nRows=19
nColumns=17
inDegrees=yes

# SIMM Motion File Header:
name fd_2_states
datacolumns 17
datarows 19
otherdata 1
range 0.588965 0.621726
endheader
time	/jointset/r_shoulder/r_shoulder_elev/value	/jointset/r_shoulder/r_shoulder_elev/speed	/jointset/r_elbow/r_elbow_flex/value	/jointset/r_elbow/r_elbow_flex/speed	/forceset/TRIlong/activation	/forceset/TRIlong/fiber_length	/forceset/TRIlat/activation	/forceset/TRIlat/fiber_length	/forceset/TRImed/activation	/forceset/TRImed/fiber_length	/forceset/BIClong/activation	/forceset/BIClong/fiber_length	/forceset/BICshort/activation	/forceset/BICshort/fiber_length	/forceset/BRA/activation	/forceset/BRA/fiber_length
      0.588965	      0.019182	     -0.032970	     82.383068	    139.993360	      0.020005	      0.167113	      0.228782	      0.100285	      0.225225	      0.095361	      0.672201	      0.101975	      0.025950	      0.104390	      0.020052	      0.071674
      0.590156	      0.019143	     -0.033016	     82.549763	    139.990178	      0.020005	      0.167168	      0.229158	      0.100340	      0.225539	      0.095417	      0.673273	      0.101834	      0.025891	      0.104253	      0.020052	      0.071611
      0.590951	      0.019116	     -0.034018	     82.660990	    139.992106	      0.020005	      0.167205	      0.229757	      0.100377	      0.226145	      0.095454	      0.674310	      0.101739	      0.025949	      0.104162	      0.020051	      0.071569
      0.591745	      0.019089	     -0.035110	     82.772219	    139.994481	      0.020005	      0.167242	      0.230346	      0.100414	      0.226746	      0.095490	      0.675337	      0.101645	      0.026014	      0.104071	      0.020051	      0.071527
      0.595012	      0.018974	     -0.033017	     83.229554	    139.982468	      0.020005	      0.167392	      0.232260	      0.100565	      0.228694	      0.095641	      0.679030	      0.101256	      0.026200	      0.103692	      0.020048	      0.071355
      0.598279	      0.018879	     -0.025422	     83.686808	    139.951968	      0.020005	      0.167544	      0.233558	      0.100716	      0.230012	      0.095792	      0.681999	      0.100866	      0.026301	      0.103311	      0.020046	      0.071182
      0.600040	      0.018837	     -0.023143	     83.933210	    139.943525	      0.020005	      0.167624	      0.234090	      0.100798	      0.230552	      0.095875	      0.683375	      0.100657	      0.026330	      0.103106	      0.020045	      0.071088
      0.601010	      0.018814	     -0.023550	     84.068932	    139.943308	      0.020005	      0.167669	      0.234728	      0.100844	      0.231225	      0.095920	      0.684755	      0.100541	      0.026304	      0.102993	      0.020045	      0.071037
      0.601979	      0.018791	     -0.023586	     84.204653	    139.941740	      0.020004	      0.167714	      0.235361	      0.100889	      0.231896	      0.095965	      0.686168	      0.100425	      0.026274	      0.102880	      0.020044	      0.070985
      0.605490	      0.018717	     -0.016695	     84.695868	    139.912186	      0.020004	      0.167876	      0.237133	      0.101051	      0.233769	      0.096127	      0.690583	      0.100005	      0.026169	      0.102472	      0.020042	      0.070798
      0.609000	      0.018674	     -0.008472	     85.186963	    139.887313	      0.020004	      0.168036	      0.238305	      0.101215	      0.235004	      0.096290	      0.694082	      0.099584	      0.026069	      0.102064	      0.020040	      0.070610
      0.610224	      0.018663	     -0.008998	     85.358193	    139.886324	      0.020004	      0.168095	      0.238668	      0.101273	      0.235380	      0.096348	      0.695190	      0.099437	      0.026035	      0.101922	      0.020040	      0.070544
      0.611132	      0.018655	     -0.009911	     85.485189	    139.890212	      0.020004	      0.168137	      0.239305	      0.101315	      0.235999	      0.096390	      0.696447	      0.099328	      0.026010	      0.101816	      0.020039	      0.070495
      0.612040	      0.018645	     -0.010768	     85.612188	    139.893972	      0.020004	      0.168179	      0.239917	      0.101357	      0.236591	      0.096432	      0.697680	      0.099219	      0.025986	      0.101711	      0.020039	      0.070446
      0.615493	      0.018610	     -0.008001	     86.095255	    139.888091	      0.020004	      0.168338	      0.241730	      0.101517	      0.238345	      0.096592	      0.701752	      0.098804	      0.025896	      0.101308	      0.020037	      0.070260
      0.618946	      0.018592	     -0.003396	     86.578276	    139.874223	      0.020004	      0.168500	      0.242941	      0.101679	      0.239515	      0.096754	      0.705000	      0.098388	      0.025809	      0.100905	      0.020035	      0.070074
      0.620151	      0.018589	     -0.002647	     86.746819	    139.877103	      0.020004	      0.168554	      0.243298	      0.101735	      0.239860	      0.096810	      0.706027	      0.098243	      0.025780	      0.100764	      0.020035	      0.070008
      0.620939	      0.018587	     -0.003140	     86.856997	    139.880010	      0.020003	      0.168590	      0.243829	      0.101772	      0.240387	      0.096847	      0.707169	      0.098148	      0.025762	      0.100672	      0.020034	      0.069966
      0.621726	      0.018584	     -0.003603	     86.967178	    139.882491	      0.020003	      0.168626	      0.244355	      0.101809	      0.240908	      0.096884	      0.708320	      0.098053	      0.025743	      0.100580	      0.020034	      0.069923
